# xmcd
#
# Track frame offsets: 
#        150
#        16662
#        33748
#        54218
#        67377
#        82453
#        102810
#        117961
#        133900
#        153417
#        163566
#        188387
#
# Disc length: 2653 seconds
#
# Revision: 0
# Processed by: cddbd v1.5.2PL0 Copyright (c) Steve Scherf et al.
# Submitted via: ExactAudioCopy v1.3
#
DISCID=9e0a5b0c
DTITLE=Shakedown Tim and The Rhythm Revue - Shakedown's Th'owndown
DYEAR=2018
DGENRE=Blues
TTITLE0=Drop You Like A Bad Habit
TTITLE1=Junior's Mambo
TTITLE2=Icepick's Shakedown Th'owdown
TTITLE3=Did The Best I Could
TTITLE4=The Way It's Gonna Be
TTITLE5=No More Fightin'
TTITLE6=Rollin' On
TTITLE7=Drop You Like A Bad Habit
TTITLE8=I Will Unfriend You
TTITLE9=I Wanna See You Baby
TTITLE10=Blues After Hours
TTITLE11=Let's Get A Life
EXTD=
EXTT0=
EXTT1=
EXTT2=
EXTT3=
EXTT4=
EXTT5=
EXTT6=
EXTT7=
EXTT8=
EXTT9=
EXTT10=
EXTT11=
PLAYORDER=
